<?xml version="1.0" ?><!DOCTYPE svg  PUBLIC '-//W3C//DTD SVG 1.1//EN'  'http://www.w3.org/Graphics/SVG/1.1/DTD/svg11.dtd'><svg height="100%" style="fill-rule:evenodd;clip-rule:evenodd;stroke-linejoin:round;stroke-miterlimit:1.41421;" version="1.1" viewBox="0 0 101 126" width="100%" xml:space="preserve" xmlns="http://www.w3.org/2000/svg" xmlns:serif="http://www.serif.com/" xmlns:xlink="http://www.w3.org/1999/xlink"><rect height="8" style="fill:#d715ff;" width="60" x="20.731" y="85.756"/><clipPath id="_clip1"><rect height="8" width="60" x="20.731" y="85.756"/></clipPath><g clip-path="url(#_clip1)"><rect height="97" style="fill:#020000;fill-opacity:0.25;" width="50" x="50.131" y="73.456"/></g><path d="M54.131,33.056l0,36.6l17.9,-15.4l5.2,6.1l-24.5,21c-1.5,1.3 -3.7,1.3 -5.2,0l-24.5,-21l5.2,-6.1l17.9,15.4l0,-36.5l8,0l0,-0.1Z" style="fill:#d715ff;fill-rule:nonzero;"/><clipPath id="_clip2"><path clip-rule="nonzero" d="M54.131,33.056l0,36.6l17.9,-15.4l5.2,6.1l-24.5,21c-1.5,1.3 -3.7,1.3 -5.2,0l-24.5,-21l5.2,-6.1l17.9,15.4l0,-36.5l8,0l0,-0.1Z"/></clipPath><g clip-path="url(#_clip2)"><rect height="54" style="fill:#020000;fill-opacity:0.25;" width="27.1" x="50.131" y="30.456"/></g><path d="M25.2,59.827l3,-3l-1.252,4.235l-1.748,-1.235Z" style="fill:#fff;fill-opacity:0.5;fill-rule:nonzero;"/><path d="M22.571,91.844l2.629,-4.177l-2.629,0l0,4.177Z" style="fill:#fff;fill-opacity:0.5;fill-rule:nonzero;"/><path d="M43.07,76.065c0,0 4.051,3.144 5.535,4.296c0.1,0.078 0.236,0.092 0.35,0.036c0.114,-0.056 0.186,-0.172 0.186,-0.299c0,-0.47 0,-1.012 0,-1.012l-6.071,-3.021Z" style="fill:#fff;fill-opacity:0.5;fill-rule:nonzero;"/></svg>