<?xml version="1.0" ?><svg viewBox="0 0 64 64" xmlns="http://www.w3.org/2000/svg"><defs><style>.cls-1{fill:#ea348b;}.cls-2{fill:#006df0;}.cls-3{fill:#ffda44;}.cls-4{fill:#00ddc2;}.cls-5{fill:#231f20;}</style></defs><title/><g id="holiday-summer-beach"><path class="cls-1" d="M48.879,43.293l4,4a1,1,0,0,0,1.415-1.415L50.05,41.636l-.095-.072a.988.988,0,0,1-.171-.171A.991.991,0,0,0,49,41H19.829a1,1,0,0,1-.707-.293L15.05,36.636a1,1,0,0,0-1.414,1.414l4.242,4.243c.027.025.058.045.087.067a1.209,1.209,0,0,1,.234.229A.991.991,0,0,0,19,43H48.172A1,1,0,0,1,48.879,43.293Z"/><path class="cls-2" d="M46.352,22c1.8.867,2.118,2.5,2.374,3.81.245,1.252.425,1.98,1.28,2.392s1.538.1,2.67-.488c1.186-.615,2.66-1.381,4.461-.514s2.118,2.5,2.375,3.811a9.132,9.132,0,0,0,.308,1.252,16.981,16.981,0,0,0-29.9-14.417,9.2,9.2,0,0,0,1.176-.539c1.186-.616,2.661-1.381,4.464-.513s2.12,2.5,2.378,3.812c.246,1.252.426,1.981,1.284,2.395s1.539.1,2.672-.488C43.076,21.9,44.553,21.128,46.352,22Z"/><circle class="cls-3" cx="13" cy="13" r="4"/><path class="cls-4" d="M9.5,60c1.441,0,2.137-.743,3.019-1.684A5.76,5.76,0,0,1,16.994,56a5.758,5.758,0,0,1,4.478,2.316C22.354,59.257,23.05,60,24.491,60s2.138-.743,3.02-1.684a5.491,5.491,0,0,1,8.96,0C37.353,59.257,38.05,60,39.492,60s2.138-.743,3.02-1.684a5.492,5.492,0,0,1,8.961,0C52.355,59.257,53.052,60,54.5,60s2.14-.743,3.022-1.684c.148-.157.3-.32.465-.484C57.631,54.565,47.064,51,32,51S6.361,54.568,6.016,57.836c.161.162.316.324.462.48C7.36,59.257,8.056,60,9.5,60Z"/><path class="cls-5" d="M13,19a6,6,0,1,0-6-6A6.006,6.006,0,0,0,13,19ZM13,9a4,4,0,1,1-4,4A4,4,0,0,1,13,9Z"/><rect class="cls-5" height="4" width="2" x="12" y="2"/><rect class="cls-5" height="4" transform="translate(-2.749 6.636) rotate(-45)" width="2" x="5.636" y="4.636"/><rect class="cls-5" height="2" width="4" x="2" y="12"/><rect class="cls-5" height="2" transform="translate(-11.749 10.364) rotate(-45)" width="4" x="4.636" y="18.364"/><rect class="cls-5" height="4" width="2" x="12" y="20"/><rect class="cls-5" height="4" transform="translate(-8.021 19.364) rotate(-45)" width="2" x="18.364" y="17.364"/><rect class="cls-5" height="2" width="4" x="20" y="12"/><rect class="cls-5" height="2" transform="translate(0.979 15.636) rotate(-45)" width="4" x="17.364" y="5.636"/><path class="cls-5" d="M47,50.342V45h.758l3.706,3.707a3,3,0,0,0,4.243-4.243l-4.243-4.242a1.923,1.923,0,0,0-.189-.165A2.974,2.974,0,0,0,49,39H39.253l6.995-14.507a5.435,5.435,0,0,1,.515,1.7c.257,1.311.575,2.942,2.374,3.81s3.275.1,4.461-.514c1.132-.588,1.815-.9,2.671-.488s1.035,1.141,1.28,2.393a5.308,5.308,0,0,0,1.519,3.239c-.024.061-.042.125-.068.186l.919.383,0,0h0l.923.385a18.945,18.945,0,0,0-8.411-23.925l.889-1.846-1.8-.868-.889,1.845A18.965,18.965,0,0,0,26.675,19.11l.876.482h0l.875.482c.032-.059.071-.111.1-.169a5.3,5.3,0,0,0,3.483-.826c1.133-.587,1.817-.9,2.674-.486s1.038,1.142,1.284,2.395c.257,1.311.578,2.943,2.379,3.811s3.274.1,4.461-.513a5.557,5.557,0,0,1,1.629-.651L37.032,39H20.243l-3.779-3.778a3,3,0,1,0-4.242,4.242l4.242,4.243a2.358,2.358,0,0,0,.222.192A3.007,3.007,0,0,0,19,45h3v4.573c-8.7,1.02-16.088,3.389-17.678,6.968A4.988,4.988,0,0,0,2,56v2c1.441,0,2.137.743,3.019,1.684A5.758,5.758,0,0,0,9.5,62a5.758,5.758,0,0,0,4.478-2.316C14.857,58.743,15.553,58,16.994,58s2.137.743,3.019,1.684A5.76,5.76,0,0,0,24.491,62a5.76,5.76,0,0,0,4.479-2.316C29.852,58.743,30.549,58,31.99,58s2.139.743,3.022,1.684a5.49,5.49,0,0,0,8.959,0C44.853,58.743,45.55,58,46.991,58s2.14.743,3.023,1.684a5.494,5.494,0,0,0,8.963,0C59.859,58.743,60.557,58,62,58V56a5,5,0,0,0-2.323.54C58.4,53.674,53.408,51.584,47,50.342ZM41.891,22.51c-1.133.588-1.814.9-2.672.488s-1.038-1.143-1.284-2.395c-.258-1.311-.578-2.944-2.378-3.812s-3.278-.1-4.464.513a9.2,9.2,0,0,1-1.176.539A16.978,16.978,0,0,1,59.82,32.26a9.132,9.132,0,0,1-.308-1.252c-.257-1.311-.575-2.943-2.375-3.811s-3.275-.1-4.461.514c-1.132.588-1.815.9-2.67.488s-1.035-1.14-1.28-2.392c-.256-1.311-.575-2.943-2.374-3.81S43.076,21.9,41.891,22.51ZM45,49.989a81.845,81.845,0,0,0-10.579-.955L36.368,45H45ZM19,43a.991.991,0,0,1-.8-.411,1.209,1.209,0,0,0-.234-.229c-.029-.022-.06-.042-.087-.067L13.636,38.05a1,1,0,0,1,1.414-1.414l4.072,4.071a1,1,0,0,0,.707.293H49a.991.991,0,0,1,.784.393.988.988,0,0,0,.171.171l.095.072,4.243,4.242a1,1,0,0,1-1.415,1.415l-4-4A1,1,0,0,0,48.172,43Zm5,2H34.143l-1.93,4L32,49c-2.672,0-5.376.125-8,.366ZM57.518,58.316C56.636,59.257,55.938,60,54.5,60s-2.141-.743-3.023-1.684a5.492,5.492,0,0,0-8.961,0C41.63,59.257,40.934,60,39.492,60s-2.139-.743-3.021-1.684a5.491,5.491,0,0,0-8.96,0c-.882.941-1.578,1.684-3.02,1.684s-2.137-.743-3.019-1.684A5.758,5.758,0,0,0,16.994,56a5.76,5.76,0,0,0-4.478,2.316C11.634,59.257,10.938,60,9.5,60s-2.137-.743-3.019-1.684c-.146-.156-.3-.318-.462-.48C6.361,54.568,16.931,51,32,51s25.631,3.565,25.983,6.832C57.822,58,57.666,58.159,57.518,58.316Z"/></g></svg>