<?xml version="1.0" ?><!DOCTYPE svg  PUBLIC '-//W3C//DTD SVG 1.1//EN'  'http://www.w3.org/Graphics/SVG/1.1/DTD/svg11.dtd'><svg enable-background="new 0 0 1010 1010" id="shopping-bag" version="1.1" viewBox="0 0 1010 1010" xml:space="preserve" xmlns="http://www.w3.org/2000/svg" xmlns:xlink="http://www.w3.org/1999/xlink"><g id="shopping-bag-label"><path d="M505,0C226.106,0,0,226.1157,0,504.9805C0,783.8945,226.106,1010,505,1010   c278.875,0,505-226.1055,505-505.0195C1010,226.1157,783.875,0,505,0z" fill="#F6BBBB"/></g><g id="shopping-bag-shopping-bag"><g><polygon fill="#FED78F" points="661.9844,367.5449 348.0063,367.5449 227.25,734.666 782.75,734.666   "/><path d="M782.75,744.7666h-555.5c-3.2402,0-6.2827-1.5586-8.1816-4.1826    c-1.8985-2.6231-2.4263-5.9961-1.4102-9.0742l120.7559-367.1211c1.3613-4.1426,5.2275-6.9434,9.5922-6.9434h313.9781    c4.3594,0,8.2256,2.8008,9.5869,6.9434l120.7656,367.1211c1.0264,3.0781,0.4932,6.451-1.4005,9.0742    C789.0332,743.208,785.9854,744.7666,782.75,744.7666L782.75,744.7666z M241.2065,724.5664H768.793L654.6758,377.6455H355.3149    L241.2065,724.5664L241.2065,724.5664z" fill="#313233"/><path d="M606.6611,445.2778c-5.5732,0-10.1006-4.5175-10.1006-10.1001V258.8716    c0-45.9136-30.457-74.438-79.4882-74.438h-24.1548c-42.7178,0-88.6904,23.2969-88.6904,74.438v176.3061    c0,5.5826-4.5225,10.1001-10.1001,10.1001c-5.5777,0-10.1001-4.5175-10.1001-10.1001V258.8716    c0-54.8399,45.7954-94.6382,108.8906-94.6382h24.1548c60.5605,0,99.6884,37.145,99.6884,94.6382v176.3061    C616.7607,440.7603,612.2334,445.2778,606.6611,445.2778L606.6611,445.2778z" fill="#FFFFFF"/></g><g><path d="M504.9902,523.8779c0-34.8467,28.2383-63.1147,63.1348-63.1147c34.8574,0,63.125,28.268,63.125,63.1147    c0,18.2764-7.9004,34.5908-20.2793,46.1407l0.1484,0.0302L504.9902,676.1973L398.8218,570.0488    c0.0395-0.0302,0.0591-0.0302,0.1186-0.0801c-12.3789-11.539-20.1904-27.8144-20.1904-46.0908    c0-34.8467,28.2188-63.1147,63.125-63.1147C476.7021,460.7632,504.9902,489.0312,504.9902,523.8779z" fill="#F05354"/><path d="M504.9902,686.2969c-2.6777,0-5.247-1.0655-7.1411-2.959L391.6807,577.1895    c-0.3448-0.3458-0.6607-0.711-0.9468-1.0948c-14.2573-13.9267-22.0835-32.4013-22.0835-52.2168    c0-40.3701,32.8496-73.2148,73.2246-73.2148c26.8525,0,50.3721,14.5283,63.1152,36.1391    c12.753-21.6108,36.2774-36.1391,63.1348-36.1391c40.3809,0,73.2246,32.8447,73.2246,73.2148    c0,19.8057-7.8701,38.3096-22.2119,52.3057c-0.2666,0.3545-0.5518,0.6894-0.8779,1.0059L512.1309,683.3379    C510.2373,685.2314,507.668,686.2969,504.9902,686.2969L504.9902,686.2969z M407.166,564.1104l97.8242,97.8046l97.834-97.8437    c0.3653-0.5127,0.7891-0.9961,1.2627-1.4404c11.0069-10.2676,17.0635-24.0274,17.0635-38.753    c0-29.2343-23.791-53.0146-53.0254-53.0146c-29.2441,0-53.0352,23.7803-53.0352,53.0146c0,5.5829-4.5214,10.1006-10.0996,10.1006    c-5.5776,0-10.1001-4.5176-10.1001-10.1006c0-29.2343-23.7802-53.0146-53.0151-53.0146    c-29.2393,0-53.0249,23.7803-53.0249,53.0146c0,14.7559,6.0317,28.4951,16.98,38.704    C406.3281,563.0449,406.7764,563.5586,407.166,564.1104L407.166,564.1104z" fill="#313233"/></g></g></svg>